<?xml version="1.0" encoding="UTF-8" standalone="no"?>
<!-- Created with Inkscape (http://www.inkscape.org/) -->

<svg
   width="192.08784mm"
   height="152.51553mm"
   viewBox="0 0 192.08784 152.51553"
   version="1.1"
   id="svg1"
   xml:space="preserve"
   xmlns="http://www.w3.org/2000/svg"
   xmlns:svg="http://www.w3.org/2000/svg"><defs
     id="defs1" /><g
     id="layer1"
     transform="translate(-8.748044,-11.862705)"><path
       style="fill:none;stroke:#ffffff;stroke-width:3.90001;stroke-linecap:round;stroke-linejoin:round;stroke-dasharray:none;stroke-opacity:1;paint-order:markers stroke fill"
       d="m 65.930636,119.26063 c 4.093714,1.40626 6.141946,3.39694 7.891312,5.47301"
       id="path17" /><g
       id="g20"
       transform="translate(-9.1641039,-22.401143)"><g
         id="g12"
         transform="translate(75.928345,20.65475)"><path
           id="path8"
           style="fill:none;stroke:#ffffff;stroke-width:5;stroke-linecap:round;stroke-linejoin:round;stroke-dasharray:none;stroke-opacity:1;paint-order:markers stroke fill"
           d="m 45.686249,31.994999 c 0,0 -2.585949,6.01543 -5.655582,18.603705 m 13.865772,97.334026 43.274217,0.0132 c 1.794469,5.5e-4 3.295964,-1.45298 3.367534,-3.24602 0.62376,-15.62517 3.96228,-83.528177 15.77349,-113.019811 v 0" /><path
           style="fill:none;stroke:#ffffff;stroke-width:5;stroke-linecap:round;stroke-linejoin:round;stroke-dasharray:none;stroke-opacity:1;paint-order:markers stroke fill"
           d="m 131.4,143.46 c 0,-21.36032 2.84092,-67.012166 -15.08832,-111.780001 v 0"
           id="path9" /><path
           style="fill:none;stroke:#ffffff;stroke-width:4.99999;stroke-linecap:round;stroke-linejoin:round;stroke-dasharray:none;stroke-opacity:1;paint-order:markers stroke fill"
           d="m 131.4,143.46 -34.229345,4.48579 4.515895,-0.59181 17.12513,-19.05653 L 131.4,143.46"
           id="path10" /><path
           style="fill:none;stroke:#ffffff;stroke-width:4.99999;stroke-linecap:round;stroke-linejoin:round;stroke-dasharray:none;stroke-opacity:1;paint-order:markers stroke fill"
           d="m 116.31168,31.679959 2.5,96.617491"
           id="path11" /><path
           id="path12"
           style="fill:none;stroke:#ffffff;stroke-width:4.72728;stroke-linecap:round;stroke-linejoin:round;paint-order:markers stroke fill"
           d="m 48.322942,15.972738 h 66.006788 c 2.5187,0 4.54639,1.598929 4.54639,3.585042 v 7.881612 c 0,1.986113 -2.02769,3.585041 -4.54639,3.585041 H 48.322942 c -2.518701,0 -4.546392,-1.598928 -4.546392,-3.585041 V 19.55778 c 0,-1.986113 2.027691,-3.585042 4.546392,-3.585042 z" /><g
           id="g15"><path
             style="fill:none;stroke:#ffffff;stroke-width:3.3;stroke-linecap:round;stroke-linejoin:round;stroke-dasharray:none;stroke-opacity:1;paint-order:markers stroke fill"
             d="m 50.515818,108.56939 c 1.882486,-0.83357 3.575266,-0.91303 5.44799,-1.77264 -0.237409,-5.52639 -0.796805,-10.864363 1.265072,-17.047696 -1.290168,-0.58395 -3.784102,-1.064406 -6.754843,-2.320585 2.965778,-2.934206 7.346874,-4.739548 11.313733,-6.005285 9.520334,-11.041565 17.194925,-10.990502 24.43761,-9.92778 4.818391,9.494201 2.861387,17.778509 -1.781908,25.583123 0.09125,6.684413 -1.000049,10.093453 -1.909188,13.109763 -1.216653,-1.82434 -2.479689,-3.64867 -4.363112,-5.47301 -4.2632,2.42704 -7.841021,4.96831 -16.001566,6.7458 0.26383,5.38036 -0.169972,10.47644 -2.609223,13.4916 -1.956832,-2.04736 -3.547122,-4.72255 -5.027527,-9.54594 -1.617464,-0.0844 -1.385988,0.0321 -3.030649,0.0112"
             id="path13" /><path
             style="fill:none;stroke:#ffffff;stroke-width:3.29999;stroke-linecap:round;stroke-linejoin:round;stroke-dasharray:none;stroke-opacity:1;paint-order:markers stroke fill"
             d="m 67.451695,76.077458 c 3.921019,8.31429 10.67371,13.047348 20.364675,14.064353"
             id="path14" /><path
             style="fill:none;stroke:#ffffff;stroke-width:3.9;stroke-linecap:round;stroke-linejoin:round;stroke-dasharray:none;stroke-opacity:1;paint-order:markers stroke fill"
             d="m 78.442709,78.678959 0.04467,-0.171617"
             id="path15" /></g></g><g
         id="g19"><g
           id="g7"
           transform="translate(-9.2664415,36.225711)"><path
             id="path4"
             style="fill:none;stroke:#ffffff;stroke-width:5;stroke-linecap:round;stroke-linejoin:round;stroke-dasharray:none;stroke-opacity:1;paint-order:markers stroke fill"
             d="M 45.686249,31.994999 C 45.469641,32.717024 25.97571,81.725871 30.306711,143.25175 c 0.117085,1.6633 2.609612,4.80141 4.277147,4.80192 l 62.586798,-0.10778 c 1.794469,5.5e-4 3.295964,-1.45298 3.367534,-3.24602 0.62376,-15.62517 3.96228,-83.528177 15.77349,-113.019811 v 0" /><path
             style="fill:none;stroke:#ffffff;stroke-width:5;stroke-linecap:round;stroke-linejoin:round;stroke-dasharray:none;stroke-opacity:1;paint-order:markers stroke fill"
             d="m 131.4,143.46 c 0,-21.36032 2.84092,-67.012166 -15.08832,-111.780001 v 0"
             id="path5" /><path
             style="fill:none;stroke:#ffffff;stroke-width:4.99999;stroke-linecap:round;stroke-linejoin:round;stroke-dasharray:none;stroke-opacity:1;paint-order:markers stroke fill"
             d="m 131.4,143.46 -34.229345,4.48579 4.515895,-0.59181 17.12513,-19.05653 L 131.4,143.46"
             id="path6" /><path
             style="fill:none;stroke:#ffffff;stroke-width:4.99999;stroke-linecap:round;stroke-linejoin:round;stroke-dasharray:none;stroke-opacity:1;paint-order:markers stroke fill"
             d="m 116.31168,31.679959 2.5,96.617491"
             id="path7" /><path
             id="rect7"
             style="fill:none;stroke:#ffffff;stroke-width:4.72728;stroke-linecap:round;stroke-linejoin:round;paint-order:markers stroke fill"
             d="m 48.322942,15.972738 h 66.006788 c 2.5187,0 4.54639,1.598929 4.54639,3.585042 v 7.881612 c 0,1.986113 -2.02769,3.585041 -4.54639,3.585041 H 48.322942 c -2.518701,0 -4.546392,-1.598928 -4.546392,-3.585041 V 19.55778 c 0,-1.986113 2.027691,-3.585042 4.546392,-3.585042 z" /></g><g
           id="g18"><path
             style="fill:none;stroke:#ffffff;stroke-width:3.90001;stroke-linecap:round;stroke-linejoin:round;stroke-dasharray:none;stroke-opacity:1;paint-order:markers stroke fill"
             d="m 65.039681,120.6607 c -38.71636,5.68301 -28.489725,31.48877 -21.382908,36.1473 7.106817,4.65853 33.383158,9.1059 28.892381,-30.16518 l 4.836612,-7.38219 c 0,0 6.146458,0.43952 7.764031,-1.65463 1.142327,-1.47888 0.881762,-4.11679 -0.254558,-5.60029 -1.272799,-1.66168 -4.317421,-0.64034 -5.982123,-1.90919 -1.731415,-1.31969 -1.489197,-4.8132 -3.563819,-5.473 -2.740371,-0.87153 -7.051571,0.47383 -8.018589,3.18198 -0.734449,2.05684 1.130085,4.7195 3.18198,5.72756 z"
             id="path16" /><path
             style="fill:none;stroke:#ffffff;stroke-width:3;stroke-linecap:round;stroke-linejoin:round;stroke-dasharray:none;stroke-opacity:1;paint-order:markers stroke fill"
             d="m 45.820519,137.20699 c 0.03143,0.0838 3.728994,-5.59907 11.225984,-7.94046"
             id="path18" /></g></g></g></g></svg>
