<?xml version="1.0" encoding="UTF-8" standalone="no"?>
<!-- Created with Inkscape (http://www.inkscape.org/) -->

<svg
   width="180mm"
   height="180mm"
   viewBox="0 0 180 180.00001"
   version="1.1"
   id="svg1"
   xml:space="preserve"
   xmlns="http://www.w3.org/2000/svg"
   xmlns:svg="http://www.w3.org/2000/svg"><defs
     id="defs1" /><g
     id="layer1"
     transform="translate(-6.1662873,-6.0365389)"><g
       id="g31"
       transform="translate(4.8491893,17.535251)"><path
         id="path22"
         style="display:inline;fill:#f59b9b;fill-opacity:1"
         d="M 94.035663,126.11189 152.95312,66.884766 c -1.15005,-2.375517 -0.93676,-5.188082 0.11311,-7.556975 1.35505,-3.220981 3.51941,-6.165922 4.00018,-9.702791 2.17518,-5.938102 1.97664,-12.332578 2.98202,-18.52701 0.77538,-6.76346 0.20387,-13.660515 -1.97915,-20.139655 -0.4293,-1.3569182 -0.79361,-2.8955498 -2.0849,-3.7122412 -1.52388,-1.0250785 -3.47321,-1.0282541 -5.23829,-0.9667969 -1.06947,0.084123 -2.18743,0.024578 -3.13094,0.6154521 -7.27687,3.301683 -13.79252,7.965314 -20.48623,12.322126 -5.40485,3.379865 -10.11315,7.884832 -16.00783,10.460859 L 93.402344,46.175781 89.885613,45.326742 70.121094,29.724609 C 62.361267,24.239183 54.684181,18.605303 46.498542,13.761615 42.41264,11.204432 38.539318,8.2184106 33.819514,6.9578716 32.47065,6.6041635 31.071767,6.440842 29.677734,6.5058594 c -0.988588,0.08327 -2.048586,0.1667227 -2.946642,0.5616448 -3.122126,3.5692788 -4.070444,8.4234378 -4.500835,13.0083988 -0.376859,3.615416 -0.490962,7.268736 -0.0237,10.882242 0.538636,4.631992 1.494517,9.289825 1.924757,13.962193 2.015425,5.444986 2.457404,11.321386 4.42142,16.782787 L 90.393255,125.6281 Z" /><path
         style="display:inline;fill:#0b0b0b;stroke:#e7e7e7;stroke-opacity:1;paint-order:markers stroke fill"
         d="m 81.946257,149.67749 c -5.447538,-1.6529 -11.510567,-2.51795 -16.854148,-4.58135 -6.329033,-1.57427 -12.099025,-4.52135 -17.890427,-7.77409 -5.808873,-1.88367 -10.509642,-11.49428 -16.948234,-8.06974 -4.472402,2.14611 -8.941323,4.54758 -13.142098,7.27571 -2.935913,-0.73115 7.511956,-5.56711 9.752384,-6.99775 5.493113,-1.25488 5.735853,-4.90955 1.127193,-8.16821 -1.261092,-4.93454 -6.297188,-1.80573 -9.248374,-1.28249 -3.039216,0.82003 -15.1726797,4.51527 -6.915529,0.40931 4.86326,-2.21814 17.350794,-1.2462 10.394837,-9.42448 -1.556688,-1.9801 -6.094302,-0.33175 -8.775376,-0.95903 -4.0239118,0.6385 -6.231329,-1.52943 -1.016668,-1.33929 2.23388,-1.09765 8.467393,1.55915 8.491292,-1.55528 -0.435731,-5.59041 -1.958437,-9.102384 -7.930122,-8.664679 C 11.045858,97.198839 2.2689509,97.802534 9.4376391,96.742364 14.326774,97.778634 21.750401,99.168422 19.828447,91.332038 21.107428,83.776311 25.754348,77.194325 27.462796,69.62072 31.208675,62.308468 26.066437,54.740154 25.086211,47.335142 23.517876,40.551586 22.900418,33.470101 22.126616,26.559595 22.332981,20.064487 22.568034,12.630958 26.756103,7.3794439 30.293268,5.4304129 35.336978,7.2130445 38.721894,9.1943871 49.026829,15.47162 59.149858,22.010981 68.908603,29.150803 c 6.584512,2.544031 13.098855,-2.541485 20.091432,-1.44006 7.868937,-0.867419 15.131225,1.967236 22.736115,2.209353 7.71314,-4.455736 14.61365,-10.376936 22.34777,-14.910176 5.47034,-3.136884 10.86321,-8.01171 17.42864,-8.3907766 8.95964,0.1502425 7.56682,12.1016586 8.57523,18.4493486 -0.58697,7.024682 -0.42803,14.199506 -2.61271,20.953415 -0.70432,6.246415 -3.36569,12.223137 -4.34841,18.425668 2.06424,6.991496 3.9779,14.10064 7.68913,20.406249 2.20731,3.551213 0.77735,10.274808 3.13439,12.596375 3.76777,1.138979 9.97917,-3.109879 11.75716,0.167187 -5.38014,1.112238 -14.48323,-0.549139 -13.74038,7.206714 -5.37927,7.72232 15.63793,1.37318 9.95096,5.18926 -6.00443,-0.39059 -14.48383,-0.92532 -13.81473,7.20611 4.89629,1.74864 13.48334,2.4603 15.70441,5.62484 -6.22356,0.30322 -14.30699,-7.20309 -19.14664,-2.01452 -3.10289,3.42806 -7.03448,6.98689 -0.33944,8.39384 3.27555,1.936 11.55192,5.06344 11.03917,7.93896 -3.73646,-2.76287 -7.70091,-5.24301 -12.10368,-6.96198 -6.66074,-5.53552 -11.78023,4.8832 -17.92353,6.83477 -4.17237,2.59343 -8.59094,4.69959 -13.26966,6.54374 -6.02776,1.88027 -11.90947,3.79903 -18.02208,5.13066 -4.848108,2.021 -10.491581,1.70253 -16.006584,1.66094 -1.84439,-0.39476 -4.830049,0.82805 -6.088909,-0.69323 z m 14.773718,-3.74746 c 6.524465,-0.78909 12.860495,-2.83392 18.504185,-6.41687 6.88495,-3.66568 14.26284,-9.43998 14.22657,-17.99724 5.66878,0.65157 10.35795,3.62806 16.07329,4.26591 -0.75587,-5.24404 -11.78442,-4.22198 -15.82035,-7.44929 -6.17369,-7.69108 5.6257,-5.34686 10.17578,-6.7124 5.8233,-1.19583 11.65858,-1.79129 17.63553,-1.68622 -2.37204,-4.63268 -11.63144,-1.18167 -16.64656,-1.25082 -5.29522,-0.0867 -12.47831,4.46258 -16.68939,-0.20645 2.32965,-3.18205 11.4157,-3.81156 16.22744,-5.31965 5.81556,-1.64712 11.63759,-2.56113 17.6552,-2.94624 3.31535,-4.728123 -8.21859,-0.859833 -11.41534,-1.422804 -5.8566,1.670234 -14.94119,5.659324 -20.90253,7.406274 -6.29095,4.49761 -11.64228,-6.383481 -17.07476,-9.083059 -6.99816,-1.90689 -5.74811,-9.852963 -3.34215,-17.835919 -0.076,-6.991178 1.53375,-6.815595 -1.57169,-13.773116 -2.71074,-7.144964 -5.522899,-14.620488 -10.953409,-20.201245 -6.613474,-0.563117 -8.749101,8.876487 -11.733718,13.463779 -3.13029,5.957806 -1.368109,15.582802 1.216173,21.960899 1.145746,4.936192 0.800075,13.172991 -1.326546,19.252101 -5.302454,2.90512 -15.848165,4.78487 -24.760135,3.97007 -6.149833,0.84661 -6.546208,-2.77419 -13.004536,-3.14278 -6.151631,-1.749133 -12.272933,-2.795872 -18.752074,-2.868844 -5.494788,3.312224 8.620163,2.440504 11.064009,3.954204 7.429519,1.29713 14.666705,3.15183 21.928058,5.35735 1.00838,5.45765 -6.502678,2.16254 -10.374474,2.82524 -4.111786,-1.59883 -9.849141,-2.45844 -15.107109,-2.2936 -3.690093,-1.08675 -11.383624,2.0556 -3.447137,2.48762 8.405015,-0.16945 16.506315,2.5825 24.936411,2.42046 2.90208,3.98254 -4.267332,7.8179 -8.204104,8.48795 -3.031477,-0.61042 -14.450632,5.2376 -6.257346,4.21533 3.860601,0.36659 12.255112,-6.65364 13.709106,-1.90625 0.950297,7.5078 7.385854,12.26658 13.474529,15.77434 3.642643,2.35269 7.843911,3.71432 11.986784,5.15961 5.707603,1.63065 12.527923,2.7838 18.570293,1.51166 z M 75.192609,127.56138 c -5.568002,0.27707 -5.99194,-11.51155 -2.035438,-4.14507 5.484706,4.1939 13.551838,0.41701 16.468468,-4.96808 1.256899,-3.9658 -2.811697,-6.95465 -5.719187,-8.64126 -4.301998,-6.92114 5.339863,-7.69368 10.088486,-6.96105 5.274404,-1.11551 7.014292,7.12951 1.40078,8.52015 -6.04064,3.79252 -2.403075,10.05237 2.7081,12.45768 4.998162,3.475 11.295682,-0.10471 13.846062,-2.96302 1.22111,5.59909 -7.9766,9.3601 -11.7772,6.27259 -5.413329,-0.91038 -6.798239,-8.10389 -14.291033,-1.51132 -2.786389,1.98893 -7.293384,3.42229 -10.689038,1.93938 z m 17.328802,-15.14517 c 1.787428,-2.56033 8.388369,-6.79296 1.782104,-7.82523 -6.214752,-1.454 -12.001444,0.57597 -7.657641,4.64564 4.343804,4.06968 4.292544,5.18896 5.875537,3.17959 z M 122.05928,95.805227 c 6.81991,-1.156659 10.5736,-10.065063 7.33274,-15.887432 -0.96082,-4.946202 -13.86558,-6.672973 -7.12976,-0.551075 3.90584,4.858113 -2.38073,19.994962 -7.67527,10.794158 -1.96867,-2.497251 -3.16077,-9.672182 1.0947,-6.15724 4.06978,-7.226437 -7.95606,-5.86878 -7.29494,1.122936 -2.19594,7.494255 6.55424,11.781801 13.05228,9.740196 l 0.62021,0.938456 z M 67.732763,95.618915 c 7.676317,-1.330775 8.785401,-12.159355 2.574659,-16.292764 -5.114045,-3.501085 -7.121065,7.881854 -1.666184,3.418858 2.907021,8.552115 -9.609522,15.227964 -9.948555,3.354526 -3.107707,-4.853688 7.993901,-11.64683 -0.716996,-10.701899 -8.443971,3.10763 -8.062982,16.855856 0.382757,19.665356 2.888888,1.173381 6.345442,1.022484 9.374319,0.555923 z M 36.427326,58.270941 c 2.809045,-4.698408 6.493874,-9.062998 8.990814,-13.994954 1.848038,-2.498839 8.571692,-5.993249 1.333456,-5.973072 -9.249253,1.880424 -0.246171,-3.898825 3.406581,-4.262763 -1.427681,-3.694815 -11.858332,-5.099526 -5.93111,-7.940536 -5.204701,-3.687724 -9.103415,-13.51062 -14.972532,-13.660818 -3.003433,7.143114 -2.667418,15.402274 -1.395638,22.862372 1.466348,5.86261 1.908832,12.39705 5.037773,17.729866 0.160904,1.244507 1.555019,7.30353 3.530656,5.239905 z M 147.82694,58.105305 c 2.27843,-5.932511 4.7805,-11.820568 5.71648,-18.232328 2.44714,-8.364532 3.18565,-17.80848 0.16404,-26.25284 -4.93999,-3.411403 -10.44579,7.93285 -14.62416,11.281885 -3.6636,1.505669 4.43578,3.050589 -1.09434,4.367765 -3.72288,2.015218 -9.80861,5.42364 -2.30487,6.186867 4.97472,1.75474 3.52604,3.831225 -0.68967,2.962309 -7.89847,-0.232742 0.85267,3.890811 2.44554,6.751971 2.13303,4.812773 6.12232,9.992655 9.57881,13.469986 l 0.80817,-0.535617 z"
         id="path19" /><path
         id="path1-7"
         style="display:inline;fill:#ffffff;fill-opacity:1;stroke:#e7e7e7;stroke-opacity:1;paint-order:markers stroke fill"
         d="m 43.113281,115.5 c -1.053728,0.0945 -2.071917,0.4207 -3.142578,0.37695 -3.367437,0.14844 -6.818633,-0.38667 -10.114503,0.51373 -0.143591,0.37886 0.547841,0.81775 0.941864,0.92784 1.868498,0.5088 3.751463,0.13492 5.618694,-0.0486 1.933475,-0.22806 3.900748,-0.576 5.837148,-0.20552 0.978808,0.008 2.145704,0.10166 2.91211,-0.61328 0.114219,-0.6115 -0.772315,-0.81863 -1.243499,-0.90691 -0.267377,-0.0473 -0.538598,-0.0508 -0.809236,-0.0443 z m 104.878909,0.30859 c -2.67978,0.0427 -5.42887,0.59487 -8.13833,0.23846 -0.73135,-0.21584 -1.46168,0.25705 -2.1273,0.52912 1.86224,0.66903 3.85804,0.74053 5.85016,0.94173 2.83721,0.18533 5.69903,0.38646 8.55219,0.10124 0.33698,-0.71488 -0.20587,-1.47005 -0.95197,-1.56724 -1.03334,-0.29193 -2.12171,-0.25527 -3.18475,-0.24331 z m -61.071838,29.83792 c -11.487057,-1.6803 -23.266011,-6.36982 -30.873165,-15.43292 -2.253491,-4.21801 -3.430929,-12.25758 -10.123067,-7.68771 -2.185101,1.84503 -13.827416,3.93146 -5.909318,0.56661 5.178531,-1.92456 14.334792,-1.79902 14.582018,-9.23609 -1.447522,-3.76187 -7.421956,-0.87226 -10.629357,-2.51306 -5.969079,-1.05995 -12.121518,-1.55086 -18.077128,-2.12394 5.518728,-2.08414 11.936977,-0.62782 17.64904,0.35632 4.296839,0.63637 14.068356,4.18192 14.444853,-2.33191 -3.610539,-2.35309 -9.319234,-2.66574 -13.657929,-4.11068 -6.685878,-1.69745 -13.490882,-2.74587 -20.294367,-3.742688 3.609419,-2.131491 10.560754,0.368832 15.257399,0.999168 5.704146,0.27721 11.970472,4.54917 16.908234,3.55813 0.911352,-7.267404 8.19122,-5.293488 13.203915,-6.952216 3.131717,-3.252788 4.991735,-0.673193 8.178599,0.647221 2.291035,-3.135625 -4.105751,-5.530604 -1.451615,-9.5758 0.179665,-5.56138 -1.103961,-11.385357 1.656744,-16.541506 0.314415,-8.014973 5.20987,-14.750754 8.658315,-21.712227 2.76353,-2.968628 1.619845,-9.481206 2.870385,-11.431471 2.215353,5.048089 4.312465,10.412018 9.815928,12.705855 5.358574,3.545753 7.463624,10.062094 12.561834,14.006573 2.32928,3.321421 14.06614,6.123197 12.84235,9.096982 -3.90093,-1.243714 -8.6275,-0.168502 -13.51639,3.162246 -4.88889,3.330748 -6.79111,12.174516 -2.77007,16.365451 4.02104,4.190935 10.93821,5.595952 16.25414,3.03541 3.17489,-0.985322 5.43302,-6.989953 6.50482,-0.857117 2.54221,7.948139 11.05271,4.743969 16.82384,3.507504 1.84268,-0.08658 12.06913,-2.195142 8.96767,0.321231 -9.96919,0.767774 -19.63719,3.588974 -29.28789,6.002514 -7.54896,0.94581 -1.18878,6.97396 3.31988,5.30682 7.45761,-1.2778 14.91783,-2.88778 22.52887,-2.76366 7.08727,1.53461 -4.88256,1.08934 -6.96142,1.71524 -5.96764,1.53395 -12.49748,0.85381 -18.17988,3.08972 -2.93704,6.15979 6.2689,8.1259 10.68303,8.85442 2.27989,-0.38246 8.92691,4.62748 3.08841,2.53189 -3.72465,-0.22974 -10.96913,-5.27169 -13.13695,-2.55807 -0.47621,10.05133 -10.42008,15.42494 -18.32281,19.53248 -7.32048,3.31209 -15.586331,4.90701 -23.608918,4.20928 z M 81.05205,128.39542 c 5.33881,-1.21879 9.620464,-8.33073 14.853512,-2.38966 5.086638,4.06862 15.173038,3.85831 16.647228,-3.69957 -0.093,-5.57172 -5.66842,4.08947 -9.69602,2.37607 -5.967402,0.26042 -14.278295,-8.37985 -6.981016,-12.61422 6.730146,-2.6104 2.620016,-12.219477 -4.022635,-9.91609 -6.964481,-2.569788 -13.807905,6.45268 -5.569511,9.98061 6.345957,3.98997 0.420482,11.12217 -4.918045,12.09168 -4.652383,2.50417 -7.813099,-2.77669 -10.988098,-3.44014 -2.022814,6.28707 5.761585,9.15615 10.674585,7.61132 z" /><path
         style="display:inline;fill:#c8ab37;fill-opacity:1;stroke:none;stroke-width:4;stroke-linecap:round;stroke-linejoin:round;stroke-dasharray:none;stroke-opacity:1;paint-order:markers stroke fill"
         d="m 114.58808,94.673583 c -3.57176,-1.062453 -6.51268,-4.681641 -5.65835,-8.52151 0.27898,-2.721695 1.62997,-5.670369 4.73606,-5.865012 3.04163,0.05145 0.85942,2.575947 -0.94951,2.577036 -1.20259,3.034785 0.0843,6.679574 2.12729,9.08192 1.97807,3.151213 6.11615,1.932808 7.38752,-1.131327 2.05393,-3.347309 2.97665,-7.750118 0.93172,-11.330891 -0.59333,-1.363578 -3.28353,-3.873815 0.0302,-2.819169 4.08895,0.446006 6.5794,4.644413 6.36245,8.504882 -0.1537,7.142866 -8.49736,12.192105 -14.96738,9.504071 z"
         id="path29" /><path
         style="display:inline;fill:#c8ab37;fill-opacity:1;stroke:#f9f9f9;stroke-width:4;stroke-linecap:round;stroke-linejoin:round;stroke-dasharray:none;stroke-opacity:1;paint-order:markers stroke fill"
         d=""
         id="path30" /><path
         id="path31"
         style="display:inline;fill:#c8ab37;fill-opacity:1;stroke:#e7e7e7;stroke-width:1.414;stroke-linecap:round;stroke-linejoin:round;stroke-dasharray:none;stroke-opacity:1;paint-order:markers stroke fill"
         d="m 60.174912,94.837966 c -3.273809,-0.725019 -6.085025,-3.243154 -7.052146,-6.469436 -1.310471,-3.99352 -0.06907,-8.88452 3.443729,-11.354392 1.102836,-0.766948 2.551179,-0.942046 3.837369,-0.64103 -0.213588,0.826556 -0.716553,1.636921 -1.069462,2.444462 -0.748117,1.63517 -1.705184,3.251271 -1.891019,5.070387 0.08822,1.659345 0.589565,3.269671 0.984003,4.87726 0.335577,1.402321 0.851009,2.892037 2.134238,3.705064 1.682295,1.154427 3.939656,0.70793 5.588069,-0.275077 1.407051,-1.127392 2.598539,-2.609752 3.207853,-4.318904 0.253664,-1.492121 0.136493,-3.025892 0.08833,-4.532342 0.104407,-0.856348 -0.487042,-2.026626 -1.350348,-1.118902 -0.732277,0.928839 -2.273372,0.437835 -1.730164,-0.84237 0.3424,-1.033907 1.369499,-2.150697 2.555539,-1.868696 1.330608,0.521658 2.307704,1.67541 3.126312,2.806118 1.722733,2.629442 1.880682,6.24563 0.361008,9.001363 -1.281224,2.340036 -3.934122,3.616939 -6.536426,3.702209 -1.894102,0.114567 -3.82398,0.158329 -5.696886,-0.185714 z m 54.914918,0.315018 c -2.48325,-0.764236 -4.98213,-2.118056 -6.06097,-4.63618 -1.20369,-2.92331 -0.51433,-6.558195 1.34551,-9.04567 2.15698,-3.975709 7.18383,-3.093351 5.1631,1.290862 -3.01855,-1.504582 -4.00386,2.256433 -2.94943,4.543333 0.8869,2.62147 2.42356,5.735563 5.36309,6.380186 5.20994,-0.350053 8.6973,-11.129143 3.69619,-16.027622 -2.14081,-2.61746 3.57076,-1.307529 4.64438,-0.309504 3.06111,1.805969 3.93865,5.921107 3.44752,9.205288 -0.76891,4.432551 -4.34802,8.434408 -8.96944,8.860051 -1.86769,0.272013 -3.90128,0.508093 -5.67995,-0.260744 z" /></g></g></svg>
