<?xml version="1.0" encoding="UTF-8" standalone="no"?>
<!-- Created with Inkscape (http://www.inkscape.org/) -->

<svg
   width="134.33823mm"
   height="134.29343mm"
   viewBox="0 0 134.33823 134.29343"
   version="1.1"
   id="svg1"
   xml:space="preserve"
   xmlns="http://www.w3.org/2000/svg"
   xmlns:svg="http://www.w3.org/2000/svg"><defs
     id="defs1" /><g
     id="layer1"
     transform="translate(-41.122394,-23.810654)"><path
       id="path2"
       style="fill:none;stroke:#ffffff;stroke-width:5"
       d="m 101.88675,27.276719 c -9.665555,-2.799509 -3.332944,11.830348 -10.606969,13.856549 -6.014498,3.746043 -11.977257,3.163556 -17.155628,-1.871332 -5.610485,-2.728763 -9.373938,7.245355 -14.029682,10.183489 -3.671153,2.790209 -6.52473,6.073583 -1.978811,9.756539 5.822454,5.12013 2.014845,13.470719 -2.482752,17.887361 -2.310553,1.489559 -13.971663,0.0682 -11.010925,8.229944 1.238238,5.475525 -2.441948,14.756841 1.698493,18.228561 7.15421,0.40656 13.184587,3.52879 14.417861,11.04711 3.452291,6.71126 -11.011251,12.93816 -1.28832,18.03628 4.307831,3.77788 8.335877,9.87506 13.224532,11.83162 5.498754,-4.19609 11.579938,-7.79677 17.873328,-2.91546 6.643376,2.56499 3.632676,8.05584 6.851609,13.85484 7.683704,0.2436 15.424714,0.31802 23.108524,-0.071 0.89791,-7.38546 3.08332,-14.72482 11.45501,-15.90094 6.50391,-3.63879 12.75927,10.83129 17.72311,1.67627 4.0997,-4.3122 9.12399,-8.31763 12.45062,-12.98995 -4.14254,-5.74912 -8.34817,-11.95269 -3.24563,-18.48648 2.56141,-6.64008 8.06486,-3.63361 13.8562,-6.85102 0.20628,-7.678044 0.37927,-15.447417 -0.11242,-23.105863 -7.35981,-0.9199 -14.68597,-3.074869 -15.84907,-11.435961 -3.80209,-6.634895 11.29636,-12.947389 1.58189,-17.991689 -5.84334,-3.936424 -11.03284,-17.263199 -18.47205,-8.776504 -5.26808,5.305452 -16.51419,0.525679 -17.62206,-6.376043 -0.22451,-5.39292 -2.17522,-9.731442 -8.31191,-7.822787 -4.02498,-0.02087 -8.04996,0.01704 -12.07495,0.0065 z m -4.830075,0.02148 c -0.296036,0.304213 0.209685,0.193322 0,0 z m 75.630855,52.384766 c -0.003,0.167123 0.64644,-0.02578 0,0 z M 44.640659,103.12047 c 0.355803,0.31571 0.184549,-0.21047 0,0 z m 75.865231,52.21679 c -0.13668,0.0377 0.0256,0.50063 0,0 z" /><circle
       style="fill:none;stroke:#ffffff;stroke-width:4.99999;stroke-linecap:round;stroke-linejoin:round;stroke-dasharray:none;stroke-opacity:1;paint-order:markers stroke fill"
       id="path3"
       cx="109.08"
       cy="92.159996"
       r="28.439999" /></g></svg>
